<mxfile host="app.diagrams.net" agent="Mozilla/5.0 (Windows NT 10.0; Win64; x64) AppleWebKit/537.36 (KHTML, like Gecko) Chrome/135.0.0.0 Safari/537.36" version="26.2.14">
  <diagram name="Page-1" id="YDPKlD0KFHs3SgCBXCma">
    <mxGraphModel dx="1425" dy="816" grid="1" gridSize="10" guides="1" tooltips="1" connect="1" arrows="1" fold="1" page="1" pageScale="1" pageWidth="850" pageHeight="1100" math="0" shadow="0">
      <root>
        <mxCell id="0" />
        <mxCell id="1" parent="0" />
        <mxCell id="we5Dsqlds8Qi92xJthyF-39" value="" style="endArrow=none;dashed=1;html=1;rounded=0;exitX=0.5;exitY=0;exitDx=0;exitDy=0;" parent="1" source="we5Dsqlds8Qi92xJthyF-28" edge="1">
          <mxGeometry width="50" height="50" relative="1" as="geometry">
            <mxPoint x="515" y="650" as="sourcePoint" />
            <mxPoint x="515" y="540" as="targetPoint" />
          </mxGeometry>
        </mxCell>
        <mxCell id="we5Dsqlds8Qi92xJthyF-1" value="" style="rounded=1;whiteSpace=wrap;html=1;arcSize=7;" parent="1" vertex="1">
          <mxGeometry x="420" y="189" width="290" height="131" as="geometry" />
        </mxCell>
        <mxCell id="we5Dsqlds8Qi92xJthyF-2" value="" style="endArrow=none;html=1;rounded=0;entryX=0.998;entryY=0.332;entryDx=0;entryDy=0;entryPerimeter=0;exitX=0.004;exitY=0.332;exitDx=0;exitDy=0;exitPerimeter=0;" parent="1" source="we5Dsqlds8Qi92xJthyF-1" target="we5Dsqlds8Qi92xJthyF-1" edge="1">
          <mxGeometry width="50" height="50" relative="1" as="geometry">
            <mxPoint x="590" y="279" as="sourcePoint" />
            <mxPoint x="638" y="239" as="targetPoint" />
          </mxGeometry>
        </mxCell>
        <mxCell id="we5Dsqlds8Qi92xJthyF-3" value="" style="endArrow=none;html=1;rounded=0;entryX=0.996;entryY=0.007;entryDx=0;entryDy=0;entryPerimeter=0;exitX=0.004;exitY=0.332;exitDx=0;exitDy=0;exitPerimeter=0;" parent="1" target="we5Dsqlds8Qi92xJthyF-8" edge="1">
          <mxGeometry width="50" height="50" relative="1" as="geometry">
            <mxPoint x="420" y="259" as="sourcePoint" />
            <mxPoint x="678" y="259" as="targetPoint" />
          </mxGeometry>
        </mxCell>
        <mxCell id="we5Dsqlds8Qi92xJthyF-4" value="&lt;font style=&quot;font-size: 18px;&quot;&gt;WifiRouter&lt;/font&gt;" style="text;html=1;align=center;verticalAlign=middle;resizable=0;points=[];autosize=1;strokeColor=none;fillColor=none;" parent="1" vertex="1">
          <mxGeometry x="515" y="189" width="110" height="40" as="geometry" />
        </mxCell>
        <mxCell id="we5Dsqlds8Qi92xJthyF-6" value="C" style="ellipse;whiteSpace=wrap;html=1;aspect=fixed;fillColor=#94FF67;" parent="1" vertex="1">
          <mxGeometry x="505" y="199" width="20" height="20" as="geometry" />
        </mxCell>
        <mxCell id="we5Dsqlds8Qi92xJthyF-7" value="&lt;font style=&quot;font-size: 14px;&quot;&gt;static WifiRouter instance&lt;/font&gt;" style="text;html=1;align=center;verticalAlign=middle;resizable=0;points=[];autosize=1;strokeColor=none;fillColor=none;" parent="1" vertex="1">
          <mxGeometry x="430" y="229" width="180" height="30" as="geometry" />
        </mxCell>
        <mxCell id="we5Dsqlds8Qi92xJthyF-8" value="&lt;font style=&quot;font-size: 13px;&quot;&gt;WifiRouter()&lt;/font&gt;&lt;div&gt;&lt;font style=&quot;font-size: 13px;&quot;&gt;static getInstance() : WifiRouter&lt;/font&gt;&lt;/div&gt;&lt;div&gt;&lt;font style=&quot;font-size: 13px;&quot;&gt;connectDevice(deviceName : String) : void&lt;/font&gt;&lt;/div&gt;" style="text;html=1;align=left;verticalAlign=middle;resizable=0;points=[];autosize=1;strokeColor=none;fillColor=none;" parent="1" vertex="1">
          <mxGeometry x="440" y="259" width="270" height="60" as="geometry" />
        </mxCell>
        <mxCell id="we5Dsqlds8Qi92xJthyF-9" value="" style="rounded=1;whiteSpace=wrap;html=1;arcSize=7;" parent="1" vertex="1">
          <mxGeometry x="70" y="189" width="260" height="120" as="geometry" />
        </mxCell>
        <mxCell id="we5Dsqlds8Qi92xJthyF-10" value="" style="endArrow=none;html=1;rounded=0;entryX=0.998;entryY=0.332;entryDx=0;entryDy=0;entryPerimeter=0;exitX=0.004;exitY=0.332;exitDx=0;exitDy=0;exitPerimeter=0;" parent="1" source="we5Dsqlds8Qi92xJthyF-9" target="we5Dsqlds8Qi92xJthyF-9" edge="1">
          <mxGeometry width="50" height="50" relative="1" as="geometry">
            <mxPoint x="240" y="279" as="sourcePoint" />
            <mxPoint x="288" y="239" as="targetPoint" />
          </mxGeometry>
        </mxCell>
        <mxCell id="we5Dsqlds8Qi92xJthyF-11" value="" style="endArrow=none;html=1;rounded=0;entryX=0.998;entryY=0.332;entryDx=0;entryDy=0;entryPerimeter=0;exitX=0.004;exitY=0.332;exitDx=0;exitDy=0;exitPerimeter=0;" parent="1" edge="1">
          <mxGeometry width="50" height="50" relative="1" as="geometry">
            <mxPoint x="70" y="259" as="sourcePoint" />
            <mxPoint x="328" y="259" as="targetPoint" />
          </mxGeometry>
        </mxCell>
        <mxCell id="we5Dsqlds8Qi92xJthyF-12" value="&lt;font style=&quot;font-size: 18px;&quot;&gt;Client&lt;/font&gt;" style="text;html=1;align=center;verticalAlign=middle;resizable=0;points=[];autosize=1;strokeColor=none;fillColor=none;" parent="1" vertex="1">
          <mxGeometry x="170" y="189" width="70" height="40" as="geometry" />
        </mxCell>
        <mxCell id="we5Dsqlds8Qi92xJthyF-16" value="" style="endArrow=classic;html=1;rounded=0;" parent="1" edge="1">
          <mxGeometry width="50" height="50" relative="1" as="geometry">
            <mxPoint x="330" y="243.64" as="sourcePoint" />
            <mxPoint x="420" y="244" as="targetPoint" />
          </mxGeometry>
        </mxCell>
        <mxCell id="we5Dsqlds8Qi92xJthyF-17" value="Use" style="text;html=1;align=center;verticalAlign=middle;whiteSpace=wrap;rounded=0;" parent="1" vertex="1">
          <mxGeometry x="340" y="219" width="60" height="30" as="geometry" />
        </mxCell>
        <mxCell id="we5Dsqlds8Qi92xJthyF-19" value="" style="endArrow=classic;html=1;rounded=0;exitX=1.001;exitY=0.469;exitDx=0;exitDy=0;entryX=0.364;entryY=0.025;entryDx=0;entryDy=0;entryPerimeter=0;exitPerimeter=0;" parent="1" source="we5Dsqlds8Qi92xJthyF-1" target="we5Dsqlds8Qi92xJthyF-4" edge="1">
          <mxGeometry width="50" height="50" relative="1" as="geometry">
            <mxPoint x="530" y="199" as="sourcePoint" />
            <mxPoint x="580" y="149" as="targetPoint" />
            <Array as="points">
              <mxPoint x="750" y="249" />
              <mxPoint x="750" y="169" />
              <mxPoint x="555" y="169" />
            </Array>
          </mxGeometry>
        </mxCell>
        <mxCell id="we5Dsqlds8Qi92xJthyF-20" value="New" style="text;html=1;align=center;verticalAlign=middle;whiteSpace=wrap;rounded=0;" parent="1" vertex="1">
          <mxGeometry x="630" y="150" width="60" height="30" as="geometry" />
        </mxCell>
        <mxCell id="we5Dsqlds8Qi92xJthyF-21" value="User" style="shape=umlActor;verticalLabelPosition=bottom;verticalAlign=top;html=1;outlineConnect=0;fillColor=#E2E2E2;" parent="1" vertex="1">
          <mxGeometry x="285" y="480" width="30" height="60" as="geometry" />
        </mxCell>
        <mxCell id="we5Dsqlds8Qi92xJthyF-22" value="User" style="shape=umlActor;verticalLabelPosition=bottom;verticalAlign=top;html=1;outlineConnect=0;fillColor=#E2E2E2;" parent="1" vertex="1">
          <mxGeometry x="285" y="670" width="30" height="60" as="geometry" />
        </mxCell>
        <mxCell id="we5Dsqlds8Qi92xJthyF-27" value="&lt;font style=&quot;font-size: 14px;&quot;&gt;WifiRouter&lt;/font&gt;" style="rounded=1;whiteSpace=wrap;html=1;fillColor=#D8D8D8;" parent="1" vertex="1">
          <mxGeometry x="455" y="510" width="120" height="30" as="geometry" />
        </mxCell>
        <mxCell id="we5Dsqlds8Qi92xJthyF-28" value="&lt;font style=&quot;font-size: 14px;&quot;&gt;WifiRouter&lt;/font&gt;" style="rounded=1;whiteSpace=wrap;html=1;fillColor=#D8D8D8;" parent="1" vertex="1">
          <mxGeometry x="455" y="670" width="120" height="30" as="geometry" />
        </mxCell>
        <mxCell id="we5Dsqlds8Qi92xJthyF-29" value="" style="endArrow=none;dashed=1;html=1;rounded=0;exitX=0.5;exitY=0;exitDx=0;exitDy=0;exitPerimeter=0;" parent="1" source="we5Dsqlds8Qi92xJthyF-22" edge="1">
          <mxGeometry width="50" height="50" relative="1" as="geometry">
            <mxPoint x="275" y="540" as="sourcePoint" />
            <mxPoint x="300" y="560" as="targetPoint" />
          </mxGeometry>
        </mxCell>
        <mxCell id="we5Dsqlds8Qi92xJthyF-31" value="" style="endArrow=classic;html=1;rounded=0;" parent="1" edge="1">
          <mxGeometry width="50" height="50" relative="1" as="geometry">
            <mxPoint x="300" y="570" as="sourcePoint" />
            <mxPoint x="505" y="570" as="targetPoint" />
          </mxGeometry>
        </mxCell>
        <mxCell id="we5Dsqlds8Qi92xJthyF-32" value="" style="rounded=0;whiteSpace=wrap;html=1;" parent="1" vertex="1">
          <mxGeometry x="505" y="550" width="20" height="110" as="geometry" />
        </mxCell>
        <mxCell id="we5Dsqlds8Qi92xJthyF-33" value="" style="endArrow=classic;html=1;rounded=0;entryX=0;entryY=0.25;entryDx=0;entryDy=0;" parent="1" edge="1">
          <mxGeometry width="50" height="50" relative="1" as="geometry">
            <mxPoint x="300" y="650" as="sourcePoint" />
            <mxPoint x="505" y="650" as="targetPoint" />
          </mxGeometry>
        </mxCell>
        <mxCell id="we5Dsqlds8Qi92xJthyF-34" value="" style="html=1;labelBackgroundColor=#ffffff;startArrow=none;startFill=0;startSize=6;endArrow=classic;endFill=1;endSize=6;jettySize=auto;orthogonalLoop=1;strokeWidth=1;dashed=1;fontSize=14;rounded=0;" parent="1" edge="1">
          <mxGeometry width="60" height="60" relative="1" as="geometry">
            <mxPoint x="505" y="611" as="sourcePoint" />
            <mxPoint x="305" y="610" as="targetPoint" />
          </mxGeometry>
        </mxCell>
        <mxCell id="we5Dsqlds8Qi92xJthyF-35" value="getInstance()" style="text;strokeColor=none;align=center;fillColor=none;html=1;verticalAlign=middle;whiteSpace=wrap;rounded=0;" parent="1" vertex="1">
          <mxGeometry x="365" y="550" width="60" height="30" as="geometry" />
        </mxCell>
        <mxCell id="we5Dsqlds8Qi92xJthyF-37" value="return instance" style="text;strokeColor=none;align=center;fillColor=none;html=1;verticalAlign=middle;whiteSpace=wrap;rounded=0;" parent="1" vertex="1">
          <mxGeometry x="350" y="590" width="90" height="30" as="geometry" />
        </mxCell>
        <mxCell id="we5Dsqlds8Qi92xJthyF-38" value="connectDevice(&quot;Phone&quot;)" style="text;strokeColor=none;align=center;fillColor=none;html=1;verticalAlign=middle;whiteSpace=wrap;rounded=0;" parent="1" vertex="1">
          <mxGeometry x="355" y="630" width="90" height="30" as="geometry" />
        </mxCell>
        <mxCell id="we5Dsqlds8Qi92xJthyF-40" value="" style="whiteSpace=wrap;html=1;aspect=fixed;fillColor=#FF4141;strokeColor=#990000;" parent="1" vertex="1">
          <mxGeometry x="425" y="270" width="10" height="10" as="geometry" />
        </mxCell>
        <mxCell id="we5Dsqlds8Qi92xJthyF-41" value="" style="ellipse;whiteSpace=wrap;html=1;aspect=fixed;fillColor=#4BFF4C;strokeColor=#009900;" parent="1" vertex="1">
          <mxGeometry x="425" y="284" width="10" height="10" as="geometry" />
        </mxCell>
        <mxCell id="we5Dsqlds8Qi92xJthyF-42" value="" style="ellipse;whiteSpace=wrap;html=1;aspect=fixed;fillColor=#4BFF4C;strokeColor=#009900;" parent="1" vertex="1">
          <mxGeometry x="425" y="299" width="10" height="10" as="geometry" />
        </mxCell>
        <mxCell id="we5Dsqlds8Qi92xJthyF-43" value="" style="whiteSpace=wrap;html=1;aspect=fixed;fillColor=#FFFFFF;strokeColor=#FF4141;" parent="1" vertex="1">
          <mxGeometry x="425" y="239" width="10" height="10" as="geometry" />
        </mxCell>
        <mxCell id="we5Dsqlds8Qi92xJthyF-46" value="&lt;font style=&quot;font-size: 36px;&quot;&gt;DCD&lt;/font&gt;" style="text;html=1;align=center;verticalAlign=middle;resizable=0;points=[];autosize=1;strokeColor=none;fillColor=none;fontStyle=5" parent="1" vertex="1">
          <mxGeometry x="350" y="90" width="100" height="60" as="geometry" />
        </mxCell>
        <mxCell id="we5Dsqlds8Qi92xJthyF-47" value="&lt;font style=&quot;font-size: 36px;&quot;&gt;SD&lt;/font&gt;" style="text;html=1;align=center;verticalAlign=middle;resizable=0;points=[];autosize=1;strokeColor=none;fillColor=none;fontStyle=5" parent="1" vertex="1">
          <mxGeometry x="390" y="400" width="70" height="60" as="geometry" />
        </mxCell>
        <mxCell id="6wMnHj4qWbAwuh52041B-1" value="" style="whiteSpace=wrap;html=1;aspect=fixed;fillColor=#FF4141;strokeColor=#990000;" vertex="1" parent="1">
          <mxGeometry x="80" y="239" width="10" height="10" as="geometry" />
        </mxCell>
        <mxCell id="6wMnHj4qWbAwuh52041B-2" value="Client main()" style="text;html=1;align=center;verticalAlign=middle;whiteSpace=wrap;rounded=0;" vertex="1" parent="1">
          <mxGeometry x="90" y="229" width="80" height="30" as="geometry" />
        </mxCell>
      </root>
    </mxGraphModel>
  </diagram>
</mxfile>
